<svg xmlns="http://www.w3.org/2000/svg" width="252.873" height="45.899" viewBox="0 0 252.873 45.899">
  <g id="Grupo_4" data-name="Grupo 4" transform="translate(0 0)">
    <path id="Trazado_1" data-name="Trazado 1" d="M835.625,536.6l-.037-.075c.146-.053.29-.109.433-.166.191-.078.379-.157.563-.242a11.915,11.915,0,0,0,5.1-4.267A13.849,13.849,0,0,0,843.727,524v-.975a14.021,14.021,0,0,0-2.01-7.858,11.862,11.862,0,0,0-5.666-4.507,22.856,22.856,0,0,0-8.528-1.463H813.67v44.714h5.97V516.915l8.228,16.852,2.386,4.885,7.487,15.331h6.119Zm-1.088-6a8.413,8.413,0,0,1-1.105.759c-.1.057-.2.111-.3.164l-.1-.2-7.612-15.484-.694-1.41h3.9a9.3,9.3,0,0,1,4.813,1.187,8.185,8.185,0,0,1,3.106,3.23,10.447,10.447,0,0,1,0,9.32,7.988,7.988,0,0,1-2,2.439" transform="translate(-813.67 -509.194)" fill="#fbfbfb"/>
    <path id="Trazado_2" data-name="Trazado 2" d="M865.731,557.466a13.753,13.753,0,0,1-5.907-1.17A8.631,8.631,0,0,1,856,552.9a10.205,10.205,0,0,1-1.341-5.365,9.525,9.525,0,0,1,1.455-5.421,8.915,8.915,0,0,1,4.253-3.282,18.218,18.218,0,0,1,6.734-1.113h8.275v4.11h-8.5a7.33,7.33,0,0,0-5.079,1.6,5.284,5.284,0,0,0-1.769,4.109,5.111,5.111,0,0,0,1.769,4.052,7.505,7.505,0,0,0,5.079,1.541,9.824,9.824,0,0,0,3.709-.713,6.506,6.506,0,0,0,2.939-2.4,8.662,8.662,0,0,0,1.284-4.651l1.483,2.168a12.942,12.942,0,0,1-1.569,5.45,8.417,8.417,0,0,1-3.538,3.339,11.957,11.957,0,0,1-5.451,1.142m9.987-.8v-9.132h-.913V536.978a6.36,6.36,0,0,0-1.627-4.737,6.53,6.53,0,0,0-4.765-1.6q-1.769,0-3.653.057t-3.6.114q-1.712.057-2.968.171v-4.794q1.255-.114,2.654-.2t2.881-.114q1.485-.028,2.854-.029a22.116,22.116,0,0,1,7.648,1.113,8.135,8.135,0,0,1,4.395,3.624,13.773,13.773,0,0,1,1.427,6.791v19.29Z" transform="translate(-820.076 -511.797)" fill="#fbfbfb"/>
    <path id="Trazado_3" data-name="Trazado 3" d="M922.5,557.475q-5.992,0-9.274-2.568a8.734,8.734,0,0,1-3.4-7.02h5.137a5.024,5.024,0,0,0,1.8,3.339q1.683,1.571,5.736,1.569a9.209,9.209,0,0,0,5.593-1.455,4.334,4.334,0,0,0,1.941-3.567,3.454,3.454,0,0,0-1.427-2.94,9.7,9.7,0,0,0-4.623-1.4l-3.31-.343a13.545,13.545,0,0,1-7.077-2.6,7.2,7.2,0,0,1-2.739-6.021,8.38,8.38,0,0,1,1.483-4.994,9.42,9.42,0,0,1,4.11-3.2,15.387,15.387,0,0,1,6.049-1.113,14.022,14.022,0,0,1,8.332,2.283,8.078,8.078,0,0,1,3.31,6.791h-5.137a4.015,4.015,0,0,0-1.683-3.11,9.657,9.657,0,0,0-9.673.029,4.052,4.052,0,0,0-1.655,3.31,3.461,3.461,0,0,0,1.17,2.739,6.956,6.956,0,0,0,3.852,1.313l3.31.343a15.8,15.8,0,0,1,7.875,2.711,7.257,7.257,0,0,1,2.967,6.192,8.258,8.258,0,0,1-1.627,5.051,10.661,10.661,0,0,1-4.479,3.425,16.5,16.5,0,0,1-6.563,1.227" transform="translate(-828.698 -511.691)" fill="#fbfbfb"/>
    <path id="Trazado_4" data-name="Trazado 4" d="M898.579,514.746a3.842,3.842,0,1,0,.886,2.454,3.5,3.5,0,0,0-.886-2.454" transform="translate(-825.954 -509.91)" fill="#37d3ae"/>
    <path id="Trazado_5" data-name="Trazado 5" d="M903.48,526.254v4.338H898.8v26.139h-5.478V526.254Z" transform="translate(-826.118 -511.86)" fill="#fbfbfb"/>
    <path id="Trazado_6" data-name="Trazado 6" d="M974.618,539.877a16.834,16.834,0,0,0-1.568-7.192,13.245,13.245,0,0,0-4.794-5.506,14.512,14.512,0,0,0-8.19-2.141,15.355,15.355,0,0,0-6.648,1.341,13.12,13.12,0,0,0-4.652,3.6,15.271,15.271,0,0,0-2.71,5.05,18.953,18.953,0,0,0-.886,5.764v1.028a18.77,18.77,0,0,0,.886,5.708,15.279,15.279,0,0,0,2.71,5.05A13.234,13.234,0,0,0,953.5,556.2a16.11,16.11,0,0,0,6.907,1.37,16.485,16.485,0,0,0,6.448-1.2,12.093,12.093,0,0,0,4.738-3.48c.149-.18.291-.365.427-.553l1.977,2,.229-8.086-8.02.186,2.287,2.321a7.07,7.07,0,0,1-2.237,2.415,11.41,11.41,0,0,1-11.5.086,8.892,8.892,0,0,1-3.282-4.111,14.828,14.828,0,0,1-1.028-4.822h24.17ZM950.67,538.22a13.528,13.528,0,0,1,.8-2.852,8.927,8.927,0,0,1,3.2-4.052,9.251,9.251,0,0,1,5.394-1.484,9.482,9.482,0,0,1,5.194,1.312,8.058,8.058,0,0,1,3.08,3.68,12.406,12.406,0,0,1,.894,3.4Z" transform="translate(-834.22 -511.67)" fill="#fbfbfb"/>
    <path id="Trazado_7" data-name="Trazado 7" d="M998.1,557.34a13.509,13.509,0,0,1-5.8-1.149,8.492,8.492,0,0,1-3.757-3.336,10.028,10.028,0,0,1-1.317-5.271,9.353,9.353,0,0,1,1.429-5.326,8.751,8.751,0,0,1,4.177-3.225,17.9,17.9,0,0,1,6.616-1.094h8.13v4.037h-8.355a7.2,7.2,0,0,0-4.99,1.57,5.193,5.193,0,0,0-1.738,4.037,5.02,5.02,0,0,0,1.738,3.981,7.367,7.367,0,0,0,4.99,1.515,9.655,9.655,0,0,0,3.645-.7,6.387,6.387,0,0,0,2.887-2.355,8.511,8.511,0,0,0,1.262-4.57l1.458,2.13a12.739,12.739,0,0,1-1.542,5.355,8.281,8.281,0,0,1-3.476,3.28,11.747,11.747,0,0,1-5.355,1.121m9.813-.785v-8.971h-.9V537.211a6.249,6.249,0,0,0-1.6-4.654,6.418,6.418,0,0,0-4.682-1.57q-1.739,0-3.589.056t-3.532.112q-1.682.057-2.916.169v-4.711q1.233-.111,2.607-.2t2.832-.112q1.458-.028,2.8-.028a21.744,21.744,0,0,1,7.513,1.093,7.992,7.992,0,0,1,4.317,3.56,13.527,13.527,0,0,1,1.4,6.673v18.952Z" transform="translate(-840.792 -511.863)" fill="#37d3ae"/>
    <path id="Trazado_8" data-name="Trazado 8" d="M1038.073,555.591a14.536,14.536,0,0,1-5.887-1.177,14.038,14.038,0,0,1-4.682-3.308,15.286,15.286,0,0,1-3.084-4.934,16.518,16.518,0,0,1-1.094-6.056v-1.009a16.755,16.755,0,0,1,1.065-6,15.4,15.4,0,0,1,3-4.934,13.869,13.869,0,0,1,4.6-3.336,14.184,14.184,0,0,1,5.915-1.206,13.494,13.494,0,0,1,6.223,1.43,11.318,11.318,0,0,1,4.6,4.458,16.833,16.833,0,0,1,2.018,7.85l-2.242-3.588V513.65h5.383v40.932h-4.262V541.293h1.57a17.416,17.416,0,0,1-2.131,8.27,11.632,11.632,0,0,1-4.794,4.6,13.781,13.781,0,0,1-6.2,1.429m.729-4.71a10.179,10.179,0,0,0,4.99-1.234,9.248,9.248,0,0,0,3.589-3.561,10.73,10.73,0,0,0,1.346-5.467v-2.579a9.572,9.572,0,0,0-1.373-5.242,9.156,9.156,0,0,0-3.645-3.308,10.831,10.831,0,0,0-4.962-1.15,9.78,9.78,0,0,0-5.243,1.4,9.482,9.482,0,0,0-3.533,3.925,14.556,14.556,0,0,0,.028,11.915,9.369,9.369,0,0,0,3.589,3.925,9.965,9.965,0,0,0,5.215,1.374" transform="translate(-846.435 -509.89)" fill="#37d3ae"/>
    <path id="Trazado_9" data-name="Trazado 9" d="M1079.834,557.349q-5.889,0-9.112-2.524a8.579,8.579,0,0,1-3.336-6.9h5.046a4.937,4.937,0,0,0,1.766,3.281q1.654,1.543,5.636,1.542a9.038,9.038,0,0,0,5.494-1.43,4.258,4.258,0,0,0,1.906-3.505,3.389,3.389,0,0,0-1.4-2.887,9.521,9.521,0,0,0-4.542-1.374l-3.252-.337a13.31,13.31,0,0,1-6.953-2.551,7.075,7.075,0,0,1-2.69-5.915,8.229,8.229,0,0,1,1.457-4.906,9.244,9.244,0,0,1,4.037-3.14,15.114,15.114,0,0,1,5.944-1.093,13.781,13.781,0,0,1,8.186,2.243,7.935,7.935,0,0,1,3.251,6.672h-5.046a3.951,3.951,0,0,0-1.653-3.056,9.491,9.491,0,0,0-9.5.029,3.984,3.984,0,0,0-1.626,3.252,3.4,3.4,0,0,0,1.15,2.691,6.837,6.837,0,0,0,3.785,1.289l3.253.337a15.525,15.525,0,0,1,7.739,2.664,7.132,7.132,0,0,1,2.915,6.083,8.119,8.119,0,0,1-1.6,4.963,10.477,10.477,0,0,1-4.4,3.364,16.208,16.208,0,0,1-6.448,1.206" transform="translate(-853.32 -511.76)" fill="#37d3ae"/>
    <rect id="Rect치ngulo_3" data-name="Rect치ngulo 3" width="8.595" height="3.801" transform="translate(244.278 35.93)" fill="#fbfbfb"/>
    <rect id="Rect치ngulo_4" data-name="Rect치ngulo 4" width="3.801" height="8.595" transform="translate(249.072 35.93)" fill="#fbfbfb"/>
  </g>
</svg>
